<?xml version="1.0" encoding="UTF-8" standalone="no"?>
<svg
   xmlns:dc="http://purl.org/dc/elements/1.1/"
   xmlns:cc="http://creativecommons.org/ns#"
   xmlns:rdf="http://www.w3.org/1999/02/22-rdf-syntax-ns#"
   xmlns:svg="http://www.w3.org/2000/svg"
   xmlns="http://www.w3.org/2000/svg"
   viewBox="0 0 69.716331 101.79639"
   height="101.79639"
   width="69.716331"
   version="1.1"
   id="svg2">
  <metadata
     id="metadata8">
    <rdf:RDF>
      <cc:Work
         rdf:about="">
        <dc:format>image/svg+xml</dc:format>
        <dc:type
           rdf:resource="http://purl.org/dc/dcmitype/StillImage" />
        <dc:title></dc:title>
      </cc:Work>
    </rdf:RDF>
  </metadata>
  <defs
     id="defs6" />
  <path
     id="path3338"
     d="M 24.039278,100.06678 C 17.725798,97.319684 10.341328,89.82291 7.6488182,83.427054 6.2764882,80.167174 4.7792782,73 4.3216882,67.5 3.8640982,62 2.6194082,54.350656 1.5557082,50.501457 c -1.06370009,-3.849197 -1.74312009,-8.349197 -1.50981009,-10 0.5672,-4.013244 4.92267009,-4.538067 10.47486989,-1.262192 l 4.32433,2.551421 0,-14.868557 c 0,-17.3191714 1.16616,-19.6810563 9.375,-18.9877651 0.6875,0.058064 2.09375,-1.7034149 3.125,-3.9143969 C 29.049078,0.366672 29.733178,0 34.845098,0 c 5.11193,0 5.79603,0.366672 7.5,4.019967 1.03125,2.210982 2.4375,3.9724607 3.125,3.9143969 7.86262,-0.6640499 9.36592,1.9226307 9.42505,16.2174221 0.0472,11.416513 0.15466,11.905415 1.9066,8.676598 2.19341,-4.042435 6.70849,-5.505743 10.58566,-3.430742 2.6232,1.403894 2.72182,1.9744 1.80095,10.418789 -0.53582,4.913463 -0.845,15.504126 -0.68708,23.534808 0.23788,12.09686 -0.12355,15.52963 -2.10721,20.01403 -2.98042,6.737725 -9.31408,13.180827 -15.89623,16.170881 -6.08255,2.76311 -20.65608,3.05538 -26.45856,0.53063 z m 20.43865,-3.823542 c 8.42878,-2.503078 15.96842,-10.009774 18.45136,-18.370735 1.5129,-5.094479 1.5933,-7.858297 0.44373,-15.252644 -1.17102,-7.532303 -1.0626,-10.542413 0.65343,-18.141254 1.13158,-5.010782 1.7455,-9.61521 1.36427,-10.23206 -2.46555,-3.989342 -6.2257,2.958886 -9.09802,16.811863 -1.49844,7.22689 -2.65268,10.191592 -3.96787,10.191592 -1.56241,0 -1.90847,-3.734339 -2.19575,-23.693858 -0.34101,-23.692846 -0.85655,-26.342303 -4.82913,-24.817881 -1.25481,0.481514 -1.72816,5.732205 -1.98835,22.055843 -0.30687,19.251693 -0.56329,21.466481 -2.529,21.844044 -2.02572,0.389088 -2.1875,-1.470423 -2.1875,-25.143437 0,-21.198261 -0.32018,-25.829327 -1.875,-27.119711 -1.49589,-1.241483 -2.2541,-1.241483 -3.75,0 -1.55159,1.287706 -1.875,5.841822 -1.875,26.403056 0,24.01361 -0.0838,24.846944 -2.5,24.846944 -2.40134,0 -2.5,-0.833334 -2.5,-21.116264 0,-16.50166 -0.36623,-21.2568 -1.67585,-21.75935 -4.44909,-1.707275 -4.806,0.629963 -4.2784,28.017142 0.57401,29.796514 1.86074,35.99358 8.66181,41.716304 9.60594,8.082863 23.76293,-0.506092 19.10272,-11.589489 -2.88407,-6.859177 -14.31028,-6.718007 -14.31028,0.176802 0,3.467884 2.96476,6.437705 5.10577,5.114489 1.04465,-0.645629 0.88095,-1.232594 -0.57025,-2.044725 -3.0409,-1.701774 -2.50124,-4.764909 0.83948,-4.764909 5.65081,0 7.8089,5.791219 3.80627,10.214074 -2.72368,3.009631 -6.81986,2.89496 -10.88769,-0.304799 -2.57126,-2.02255 -3.29358,-3.680475 -3.29358,-7.559686 0,-12.572296 17.68627,-15.565203 23.6037,-3.994265 1.85438,3.626034 1.70003,11.562702 -0.29477,15.157481 -4.31127,7.769237 -16.71345,10.247986 -24.61899,4.920447 -6.06117,-4.084625 -8.45199,-9.060033 -11.68192,-24.310637 -3.15513,-14.897401 -4.58059,-18.404516 -8.2866598,-20.387946 -2.81002,-1.503875 -3.08634,-0.514944 -1.22445,4.382202 0.6858,1.803791 1.85342,8.731035 2.5947,15.393875 0.74129,6.66284 1.9272198,13.990625 2.6354198,16.283967 2.36097,7.645522 10.49813,14.968542 19.76488,17.787361 4.71295,1.433615 6.47618,1.339622 13.39092,-0.713836 z"
     style="fill:#ffffff" />
</svg>
