<?xml version="1.0" encoding="UTF-8" standalone="no"?>
<svg
   xmlns:dc="http://purl.org/dc/elements/1.1/"
   xmlns:cc="http://creativecommons.org/ns#"
   xmlns:rdf="http://www.w3.org/1999/02/22-rdf-syntax-ns#"
   xmlns:svg="http://www.w3.org/2000/svg"
   xmlns="http://www.w3.org/2000/svg"
   viewBox="0 0 116.25 86.25"
   height="86.25"
   width="116.25"
   version="1.1"
   id="svg2">
  <metadata
     id="metadata8">
    <rdf:RDF>
      <cc:Work
         rdf:about="">
        <dc:format>image/svg+xml</dc:format>
        <dc:type
           rdf:resource="http://purl.org/dc/dcmitype/StillImage" />
        <dc:title></dc:title>
      </cc:Work>
    </rdf:RDF>
  </metadata>
  <defs
     id="defs6" />
  <path
     id="path3338"
     d="M 27.48792,84.360446 C 26.62542,83.321191 23.60342,81.439074 20.77237,80.177963 13.62306,76.993251 0,65.333779 0,62.399656 0,59.784076 7.11244,54.120859 15.49171,50.064528 L 20.78074,47.50415 19.18999,38.439575 C 16.38816,22.473959 15.93838,23.281296 27.1875,24.084279 c 5.32813,0.380331 10.60295,1.056939 11.72183,1.503572 1.584,0.632305 2.22377,-0.197815 2.89019,-3.75011 0.52443,-2.795462 2.84056,-6.715306 5.98093,-10.122205 C 51.674,7.491527 52.55642,5.806421 51.45275,4.702752 49.20813,2.458129 49.73254,0 52.45602,0 55.00461,0 57.5,3.374414 57.5,6.820752 c 0,1.091808 -2.34659,4.530857 -5.21465,7.64233 -4.43877,4.815503 -5.29274,6.62469 -5.73951,12.159572 -0.44442,5.505611 -0.0105,7.255581 2.83057,11.416181 3.11886,4.567371 3.32523,5.681965 2.92702,15.80807 -0.49602,12.612905 -2.31939,15.726336 -9.92205,16.942051 -9.79622,1.566479 -16.38566,9.021665 -9.81678,11.106546 3.89874,1.237414 18.90532,-8.852905 18.42126,-12.386333 -0.32851,-2.398073 0.28335,-2.650492 6.82664,-2.816284 6.73083,-0.170545 7.1875,0.0016 7.1875,2.709074 0,2.1529 1.97062,4.207118 7.71709,8.044462 8.05106,5.376291 10.50749,5.829975 12.70145,2.345858 2.05886,-3.269589 -0.93913,-5.71919 -10.47536,-8.5592 C 67.32147,68.963233 66.28481,68.26801 65.08044,64.618724 64.34023,62.375874 63.60163,56.622258 63.4391,51.832908 63.17654,44.096006 63.5259,42.582853 66.57179,38.263066 68.90174,34.958702 70,31.828889 70,28.49339 70,22.718958 68.62755,19.78951 62.94461,13.433899 60.63757,10.853793 58.75,7.863689 58.75,6.789222 58.75,3.371455 61.25479,0 63.79398,0 c 2.71968,0 3.24877,2.457249 1.01095,4.695074 -1.09344,1.093433 -0.35088,2.656221 3.05154,6.422291 2.47314,2.737469 5.1882,7.285517 6.03347,10.106775 1.1623,3.879437 2.01796,4.937282 3.51096,4.340604 1.08575,-0.433925 6.33348,-1.100134 11.6616,-1.480465 11.24912,-0.802983 10.799338,-1.61032 7.99752,14.355296 l -1.59076,9.064575 5.28904,2.560378 c 8.37926,4.056331 15.4917,9.719548 15.4917,12.335128 0,2.934123 -13.62305,14.593595 -20.77236,17.778307 -2.83105,1.261111 -5.85305,3.143228 -6.71556,4.182483 -0.95036,1.145118 -3.66674,1.889554 -6.8948,1.889554 -4.21954,0 -6.98055,-1.12276 -13.28444,-5.402091 -4.37681,-2.97115 -8.55949,-5.754131 -9.29484,-6.184404 -0.73535,-0.430271 -5.5166,1.999242 -10.625,5.398921 -7.3721,4.906191 -10.35227,6.181889 -14.44744,6.184404 -3.08223,0.0019 -5.79081,-0.757573 -6.72764,-1.886384 z m -0.8086,-11.112235 c 1.84465,-2.81528 8.44952,-5.92288 15.99494,-7.525637 3.54359,-0.752712 4.13506,-2.122518 5.52746,-12.801268 0.74332,-5.700771 0.47116,-6.940341 -2.33279,-10.625 -1.74586,-2.294219 -3.56154,-5.723077 -4.03485,-7.619687 -0.9128,-3.657727 -1.85108,-4.080142 -12.87885,-5.798115 l -6.66977,-1.039058 0.64968,3.892778 c 0.35733,2.141026 1.01755,6.283401 1.46715,9.205276 0.72687,4.723828 1.18835,5.3125 4.16459,5.3125 5.0427,0 11.59034,4.056115 14.09918,8.734116 1.22883,2.291274 1.94222,4.638438 1.58531,5.215919 -0.3569,0.57748 -3.42659,1.049965 -6.82154,1.049965 -5.3282,0 -6.85216,-0.613914 -11.13986,-4.487596 l -4.96723,-4.487598 -7.53637,4.578101 C 9.6413703,59.370864 6.25,61.900402 6.25,62.474106 c 0,1.898054 15.06737,13.613308 17.66874,13.737883 0.43656,0.02091 1.67882,-1.312794 2.76058,-2.963778 z m 68.71536,1.568978 C 99.27849,72.779054 110,63.718211 110,62.474106 c 0,-0.573704 -3.39137,-3.103242 -7.53637,-5.621199 l -7.53636,-4.578101 -4.96724,4.487598 C 85.67233,60.636086 84.14837,61.25 78.82017,61.25 c -3.39494,0 -6.46464,-0.472485 -6.82154,-1.049965 -0.3569,-0.577481 0.35649,-2.924645 1.58531,-5.215919 C 76.09278,50.306115 82.64043,46.25 87.68313,46.25 c 2.97624,0 3.43771,-0.588672 4.16458,-5.3125 0.44961,-2.921875 1.10982,-7.06425 1.46715,-9.205276 l 0.64969,-3.892778 -6.66977,1.039058 c -11.02428,1.717429 -11.9751,2.156027 -13.37412,6.169245 -0.73103,2.09705 -2.54952,5.526665 -4.04108,7.621366 -2.30499,3.23706 -2.59936,4.885489 -1.96178,10.985571 1.05521,10.095666 1.68325,11.150874 7.52323,12.640214 8.63856,2.203048 12.16026,3.947641 14.17456,7.021858 2.2245,3.395017 2.18725,3.385346 5.77909,1.500431 z M 35.8678,54.335499 C 32.3818,51.268653 28.75,50.252442 28.75,52.343871 c 0,1.162149 7.26801,5.106771 9.375,5.088165 0.6875,-0.0061 -0.32824,-1.399514 -2.2572,-3.096537 z m 47.38079,1.147075 C 87.63061,53.403171 88.87498,51.25 85.69471,51.25 c -1.90622,0 -9.58013,6.142689 -7.75862,6.210499 0.5836,0.02173 2.97422,-0.868342 5.3125,-1.977925 z M 53.06818,40.681819 c -3.59055,-3.590552 -4.1596,-10.661829 -1.10389,-13.717533 3.16596,-3.16596 10.11049,-2.525306 12.52204,1.155198 2.63292,4.018333 1.44001,11.089927 -2.31436,13.719588 -3.75995,2.633572 -5.53913,2.407407 -9.10379,-1.157253 z M 61.25,33.846944 c 0,-2.810101 -2.39908,-5.057208 -4.52732,-4.240526 -2.10632,0.808271 -2.26521,5.601046 -0.25242,7.61384 C 58.29759,39.04759 61.25,36.96392 61.25,33.846944 Z"
     style="fill:#ffffff" />
</svg>
