<?xml version="1.0" encoding="UTF-8" standalone="no"?>
<svg
   xmlns:dc="http://purl.org/dc/elements/1.1/"
   xmlns:cc="http://creativecommons.org/ns#"
   xmlns:rdf="http://www.w3.org/1999/02/22-rdf-syntax-ns#"
   xmlns:svg="http://www.w3.org/2000/svg"
   xmlns="http://www.w3.org/2000/svg"
   version="1.1"
   id="svg3340"
   viewBox="0 0 89.999999 89.944201"
   height="25.384253mm"
   width="25.4mm">
  <defs
     id="defs3342" />
  <metadata
     id="metadata3345">
    <rdf:RDF>
      <cc:Work
         rdf:about="">
        <dc:format>image/svg+xml</dc:format>
        <dc:type
           rdf:resource="http://purl.org/dc/dcmitype/StillImage" />
        <dc:title></dc:title>
      </cc:Work>
    </rdf:RDF>
  </metadata>
  <g
     transform="translate(-268.78066,-410.27515)"
     id="layer1">
    <path
       id="path3359"
       d="m 268.78066,498.34436 c 0,-1.44722 1.62447,-1.875 7.12021,-1.875 l 7.12021,0 -4.04474,-4.17311 c -2.35203,-2.42668 -4.15479,-5.66927 -4.30771,-7.74819 -0.38989,-5.30053 4.44782,-6.71394 14.24419,-4.16167 7.48639,1.95046 7.48736,1.95035 9.87596,-1.08627 2.64952,-3.36831 4.3121,-7.67721 3.33807,-8.65124 -0.34764,-0.34764 -1.76827,-0.024 -3.15696,0.7192 -1.38868,0.74321 -5.70505,1.35128 -9.59193,1.35128 l -7.06705,0 0.8592,-5.3125 c 1.10449,-6.82925 4.97576,-15.71933 8.48411,-19.48316 1.51329,-1.62349 5.31802,-4.25849 8.45496,-5.85556 8.85071,-4.50605 9.61653,-5.98637 6.22175,-12.02658 -3.39576,-6.04193 -3.04011,-15.45853 0.68675,-18.18368 2.88601,-2.1103 10.63995,-2.1103 13.52596,0 3.72686,2.72515 4.08251,12.14175 0.68675,18.18368 -3.39478,6.04021 -2.62896,7.52053 6.22175,12.02658 3.13694,1.59707 6.94167,4.23207 8.45496,5.85556 3.50835,3.76383 7.37961,12.65391 8.48411,19.48316 l 0.85919,5.3125 -7.06705,0 c -3.88687,0 -8.20324,-0.60807 -9.59193,-1.35128 -1.38868,-0.7432 -2.80931,-1.06684 -3.15695,-0.7192 -0.97403,0.97403 0.68855,5.28293 3.33807,8.65124 2.3886,3.03662 2.38957,3.03673 9.87596,1.08627 9.79637,-2.55227 14.63408,-1.13886 14.24419,4.16167 -0.15292,2.07892 -1.95568,5.32151 -4.30771,7.74819 l -4.04474,4.17311 7.12021,0 c 5.49574,0 7.12021,0.42778 7.12021,1.875 0,1.63195 -5.83333,1.875 -45,1.875 -39.16667,0 -45,-0.24305 -45,-1.875 z m 37.65678,-3.56109 c -2.45947,-2.96348 -17.10425,-9.72769 -22.67996,-10.47555 l -5.38775,-0.72265 2.0918,3.00464 c 1.15048,1.65256 4.15565,4.55152 6.67813,6.44215 3.8958,2.91993 5.79921,3.4375 12.64173,3.4375 6.6175,0 7.8056,-0.30097 6.65605,-1.68609 z m 33.77923,-1.56782 c 2.58247,-1.78965 5.63325,-4.68525 6.77951,-6.43468 l 2.08413,-3.18077 -5.33211,0.71518 c -5.53119,0.74189 -20.17584,7.51785 -22.62432,10.46809 -1.14906,1.38453 0.0133,1.68609 6.49904,1.68609 6.47253,0 8.74599,-0.5874 12.59375,-3.25391 z m -21.34415,-2.91894 c 2.78862,-2.02006 5.59154,-3.84819 6.22869,-4.0625 0.63716,-0.21431 -0.24306,-3.15686 -1.95604,-6.539 -1.71298,-3.38214 -3.11451,-7.96134 -3.11451,-10.17599 0,-2.21466 -1.11265,-6.4787 -2.47255,-9.47566 -2.64258,-5.82373 -3.35666,-13.574 -1.25065,-13.574 0.70224,0 1.87514,1.54687 2.60646,3.4375 5.12929,13.26047 8.10252,16.45824 17.10583,18.3976 4.01851,0.86561 4.09424,0.80377 3.26012,-2.66195 -2.30277,-9.56785 -6.85332,-15.17873 -16.55169,-20.40844 -3.20239,-1.72684 -6.37778,-4.40534 -7.05643,-5.95221 -1.54878,-3.53019 -2.2334,-3.53019 -3.78218,0 -0.67865,1.54687 -3.85404,4.22537 -7.05643,5.95221 -9.69838,5.22971 -14.24892,10.84059 -16.55169,20.40844 -0.83413,3.46572 -0.75839,3.52756 3.26012,2.66195 7.39444,-1.5928 10.65209,-4.10758 13.98501,-10.79588 1.78975,-3.59155 3.25408,-7.26339 3.25408,-8.15965 0,-0.89626 1.125,-1.62957 2.5,-1.62957 3.20846,0 3.11804,1.48063 -0.64888,10.625 -1.69925,4.125 -3.09215,9.23279 -3.09533,11.35065 -0.003,2.11786 -1.40732,6.61786 -3.1203,10 -1.71299,3.38214 -2.59187,6.32514 -1.95309,6.53999 0.63879,0.21485 3.30594,2.00445 5.92701,3.9769 2.62108,1.97244 4.91108,3.62478 5.08891,3.67186 0.17783,0.0471 2.60492,-1.56718 5.39354,-3.58725 z m -2.07783,-62.45453 c 2.76189,-3.05186 2.24912,-11.18811 -0.82653,-13.11463 -5.46922,-3.4258 -9.94891,7.86884 -5.20153,13.11463 2.68132,2.96283 3.34674,2.96283 6.02806,0 z"
       style="fill:#ffffff" />
  </g>
</svg>
